<svg  viewBox="0 0 762 146" fill="none" xmlns="http://www.w3.org/2000/svg">
<mask id="path-1-outside-1_101:5" maskUnits="userSpaceOnUse" x="0.544006" y="0.239998" width="761" height="146" fill="black">
<rect fill="white" x="0.544006" y="0.239998" width="761" height="146"/>
<path d="M29.912 1.816V7.144H8.09601V24.064H25.808V29.392H8.09601V52H1.54401V1.816H29.912Z"/>
<path d="M64.2493 52L52.2973 31.48H44.3773V52H37.8253V1.816H54.0253C57.8173 1.816 61.0093 2.464 63.6013 3.76C66.2413 5.056 68.2093 6.808 69.5053 9.016C70.8013 11.224 71.4493 13.744 71.4493 16.576C71.4493 20.032 70.4413 23.08 68.4253 25.72C66.4573 28.36 63.4813 30.112 59.4973 30.976L72.0973 52H64.2493ZM44.3773 26.224H54.0253C57.5773 26.224 60.2413 25.36 62.0173 23.632C63.7933 21.856 64.6813 19.504 64.6813 16.576C64.6813 13.6 63.7933 11.296 62.0173 9.664C60.2893 8.032 57.6253 7.216 54.0253 7.216H44.3773V26.224Z"/>
<path d="M104.382 52.504C99.7259 52.504 95.4779 51.424 91.6379 49.264C87.7979 47.056 84.7499 44.008 82.4939 40.12C80.2859 36.184 79.1819 31.768 79.1819 26.872C79.1819 21.976 80.2859 17.584 82.4939 13.696C84.7499 9.76 87.7979 6.712 91.6379 4.552C95.4779 2.344 99.7259 1.24 104.382 1.24C109.086 1.24 113.358 2.344 117.198 4.552C121.038 6.712 124.062 9.736 126.27 13.624C128.478 17.512 129.582 21.928 129.582 26.872C129.582 31.816 128.478 36.232 126.27 40.12C124.062 44.008 121.038 47.056 117.198 49.264C113.358 51.424 109.086 52.504 104.382 52.504ZM104.382 46.816C107.886 46.816 111.03 46 113.814 44.368C116.646 42.736 118.854 40.408 120.438 37.384C122.07 34.36 122.886 30.856 122.886 26.872C122.886 22.84 122.07 19.336 120.438 16.36C118.854 13.336 116.67 11.008 113.886 9.376C111.102 7.744 107.934 6.928 104.382 6.928C100.83 6.928 97.6619 7.744 94.8779 9.376C92.0939 11.008 89.8859 13.336 88.2539 16.36C86.6699 19.336 85.8779 22.84 85.8779 26.872C85.8779 30.856 86.6699 34.36 88.2539 37.384C89.8859 40.408 92.0939 42.736 94.8779 44.368C97.7099 46 100.878 46.816 104.382 46.816Z"/>
<path d="M177.688 52H171.135L144.784 12.04V52H138.232V1.744H144.784L171.135 41.632V1.744H177.688V52Z"/>
<path d="M219.745 1.816V7.144H206.064V52H199.512V7.144H185.76V1.816H219.745Z"/>
<path d="M234.362 7.144V23.92H252.65V29.32H234.362V46.6H254.81V52H227.81V1.744H254.81V7.144H234.362Z"/>
<path d="M304.18 52H297.628L271.276 12.04V52H264.724V1.744H271.276L297.628 41.632V1.744H304.18V52Z"/>
<path d="M330.973 1.816C336.445 1.816 341.173 2.848 345.157 4.912C349.189 6.928 352.261 9.832 354.373 13.624C356.533 17.416 357.613 21.88 357.613 27.016C357.613 32.152 356.533 36.616 354.373 40.408C352.261 44.152 349.189 47.032 345.157 49.048C341.173 51.016 336.445 52 330.973 52H315.349V1.816H330.973ZM330.973 46.6C337.453 46.6 342.397 44.896 345.805 41.488C349.213 38.032 350.917 33.208 350.917 27.016C350.917 20.776 349.189 15.904 345.733 12.4C342.325 8.896 337.405 7.144 330.973 7.144H321.901V46.6H330.973Z"/>
<path d="M401.074 1.816C406.546 1.816 411.274 2.848 415.258 4.912C419.29 6.928 422.362 9.832 424.474 13.624C426.634 17.416 427.714 21.88 427.714 27.016C427.714 32.152 426.634 36.616 424.474 40.408C422.362 44.152 419.29 47.032 415.258 49.048C411.274 51.016 406.546 52 401.074 52H385.45V1.816H401.074ZM401.074 46.6C407.554 46.6 412.498 44.896 415.906 41.488C419.314 38.032 421.018 33.208 421.018 27.016C421.018 20.776 419.29 15.904 415.834 12.4C412.426 8.896 407.506 7.144 401.074 7.144H392.002V46.6H401.074Z"/>
<path d="M442.909 7.144V23.92H461.197V29.32H442.909V46.6H463.357V52H436.357V1.744H463.357V7.144H442.909Z"/>
<path d="M514.743 1.816L495.807 52H488.247L469.311 1.816H476.295L492.063 45.088L507.831 1.816H514.743Z"/>
<path d="M528.479 7.144V23.92H546.767V29.32H528.479V46.6H548.927V52H521.927V1.744H548.927V7.144H528.479Z"/>
<path d="M565.393 46.672H582.961V52H558.841V1.816H565.393V46.672Z"/>
<path d="M612.671 52.504C608.015 52.504 603.767 51.424 599.927 49.264C596.087 47.056 593.039 44.008 590.783 40.12C588.575 36.184 587.471 31.768 587.471 26.872C587.471 21.976 588.575 17.584 590.783 13.696C593.039 9.76 596.087 6.712 599.927 4.552C603.767 2.344 608.015 1.24 612.671 1.24C617.375 1.24 621.647 2.344 625.487 4.552C629.327 6.712 632.351 9.736 634.559 13.624C636.767 17.512 637.871 21.928 637.871 26.872C637.871 31.816 636.767 36.232 634.559 40.12C632.351 44.008 629.327 47.056 625.487 49.264C621.647 51.424 617.375 52.504 612.671 52.504ZM612.671 46.816C616.175 46.816 619.319 46 622.103 44.368C624.935 42.736 627.143 40.408 628.727 37.384C630.359 34.36 631.175 30.856 631.175 26.872C631.175 22.84 630.359 19.336 628.727 16.36C627.143 13.336 624.959 11.008 622.175 9.376C619.391 7.744 616.223 6.928 612.671 6.928C609.119 6.928 605.951 7.744 603.167 9.376C600.383 11.008 598.175 13.336 596.543 16.36C594.959 19.336 594.167 22.84 594.167 26.872C594.167 30.856 594.959 34.36 596.543 37.384C598.175 40.408 600.383 42.736 603.167 44.368C605.999 46 609.167 46.816 612.671 46.816Z"/>
<path d="M680.073 16.504C680.073 20.68 678.633 24.16 675.753 26.944C672.921 29.68 668.577 31.048 662.721 31.048H653.073V52H646.521V1.816H662.721C668.385 1.816 672.681 3.184 675.609 5.92C678.585 8.656 680.073 12.184 680.073 16.504ZM662.721 25.648C666.369 25.648 669.057 24.856 670.785 23.272C672.513 21.688 673.377 19.432 673.377 16.504C673.377 10.312 669.825 7.216 662.721 7.216H653.073V25.648H662.721Z"/>
<path d="M694.768 7.144V23.92H713.056V29.32H694.768V46.6H715.216V52H688.216V1.744H715.216V7.144H694.768Z"/>
<path d="M751.554 52L739.602 31.48H731.682V52H725.13V1.816H741.33C745.122 1.816 748.314 2.464 750.906 3.76C753.546 5.056 755.514 6.808 756.81 9.016C758.106 11.224 758.754 13.744 758.754 16.576C758.754 20.032 757.746 23.08 755.73 25.72C753.762 28.36 750.786 30.112 746.802 30.976L759.402 52H751.554ZM731.682 26.224H741.33C744.882 26.224 747.546 25.36 749.322 23.632C751.098 21.856 751.986 19.504 751.986 16.576C751.986 13.6 751.098 11.296 749.322 9.664C747.594 8.032 744.93 7.216 741.33 7.216H731.682V26.224Z"/>
<path d="M176.682 115.464C176.586 114.888 176.538 114.432 176.538 114.096C176.538 112.32 177.018 110.808 177.978 109.56L201.738 94.296C203.658 94.632 205.146 95.4 206.202 96.6C207.306 97.752 207.858 99.096 207.858 100.632C207.858 101.736 207.522 102.888 206.85 104.088L184.89 114.24L203.682 122.736C204.402 123.888 204.762 125.016 204.762 126.12C204.762 127.752 204.09 129.144 202.746 130.296C201.45 131.4 199.794 131.952 197.778 131.952L176.682 115.464Z"/>
<path d="M242.916 87.6C243.828 87.6 245.052 88.008 246.588 88.824C248.172 89.64 249.54 90.6 250.692 91.704C251.892 92.808 252.492 93.768 252.492 94.584C252.492 95.016 252.036 96.936 251.124 100.344C249.444 106.392 248.196 111.672 247.38 116.184C246.9 119.016 246.396 122.736 245.868 127.344C245.388 131.28 244.956 134.04 244.572 135.624C244.236 137.208 243.684 138 242.916 138C241.812 138 240.492 137.616 238.956 136.848C237.468 136.032 236.148 135.072 234.996 133.968C233.892 132.864 233.34 131.952 233.34 131.232C233.292 130.56 233.436 129.288 233.772 127.416C234.156 125.496 234.588 123.384 235.068 121.08L235.716 117.984C231.3 118.656 226.956 119.136 222.684 119.424C222.204 122.64 221.868 125.328 221.676 127.488C221.196 131.376 220.764 134.112 220.38 135.696C220.044 137.232 219.492 138 218.724 138C217.62 138 216.3 137.616 214.764 136.848C213.276 136.032 211.956 135.072 210.804 133.968C209.7 132.864 209.148 131.952 209.148 131.232C209.1 130.464 209.316 128.856 209.796 126.408C210.324 123.912 210.66 122.304 210.804 121.584C210.996 120.624 211.356 118.872 211.884 116.328C212.412 113.736 212.844 111.336 213.18 109.128L213.756 105.744C214.668 100.368 215.508 96 216.276 92.64C217.092 89.28 217.908 87.6 218.724 87.6C219.636 87.6 220.86 88.008 222.396 88.824C223.98 89.64 225.348 90.6 226.5 91.704C227.7 92.808 228.3 93.768 228.3 94.584C228.3 95.016 227.844 96.936 226.932 100.344C226.74 101.112 226.404 102.408 225.924 104.232C225.444 106.056 225.012 107.76 224.628 109.344C229.092 109.008 233.412 108.552 237.588 107.976C237.684 107.304 237.78 106.776 237.876 106.392C238.74 101.064 239.58 96.6 240.396 93C241.212 89.4 242.052 87.6 242.916 87.6Z"/>
<path d="M272.662 86.88C276.166 86.88 279.478 87.72 282.598 89.4C285.766 91.08 288.286 93.312 290.158 96.096C292.078 98.832 293.038 101.688 293.038 104.664C293.038 109.32 291.79 114.312 289.294 119.64C286.798 124.92 283.63 129.36 279.79 132.96C275.998 136.56 272.254 138.36 268.558 138.36C266.638 138.36 264.478 137.568 262.078 135.984C259.726 134.352 257.71 132.432 256.03 130.224C254.35 127.968 253.51 125.976 253.51 124.248C253.51 121.512 254.326 116.808 255.958 110.136C257.59 103.416 259.102 98.472 260.494 95.304C262.078 94.824 263.566 94.584 264.958 94.584C265.918 94.584 266.686 94.68 267.262 94.872C267.166 93.096 267.598 91.464 268.558 89.976C269.518 88.488 270.886 87.456 272.662 86.88ZM265.246 128.496C269.854 126.816 273.718 123.6 276.838 118.848C279.958 114.048 282.166 108.792 283.462 103.08C282.118 102.12 280.366 101.328 278.206 100.704C276.094 100.08 273.814 99.744 271.366 99.696C271.462 100.176 271.558 100.896 271.654 101.856C267.238 110.112 265.102 118.992 265.246 128.496Z"/>
<path d="M311.956 138C311.044 138 309.724 137.616 307.996 136.848C306.268 136.032 304.66 135.096 303.172 134.04C301.732 132.936 300.916 132 300.724 131.232C300.484 130.176 300.052 125.76 299.428 117.984C299.236 114.864 299.068 112.584 298.924 111.144C298.828 109.896 298.732 108.96 298.636 108.336C298.012 101.904 297.7 97.248 297.7 94.368C297.7 91.152 298.06 89.448 298.78 89.256C298.972 89.208 299.284 89.184 299.716 89.184C300.772 89.184 302.068 89.448 303.604 89.976C305.188 90.456 306.58 91.08 307.78 91.848C308.98 92.616 309.676 93.36 309.868 94.08C309.964 94.368 310.012 95.448 310.012 97.32C310.012 99.96 309.94 103.2 309.796 107.04C309.604 113.28 309.508 118.104 309.508 121.512V124.104C313.588 115.176 318.148 103.2 323.188 88.176C324.628 87.696 326.092 87.456 327.58 87.456C329.548 87.456 331.204 87.984 332.548 89.04C333.94 90.096 334.852 91.704 335.284 93.864C321.796 123.288 314.02 138 311.956 138Z"/>
<path d="M355.067 105.528C355.451 103.128 355.643 101.208 355.643 99.768C355.643 98.76 355.547 97.968 355.355 97.392C355.211 96.816 355.019 96.528 354.779 96.528C354.059 96.528 353.219 97.128 352.259 98.328C351.347 99.528 350.555 100.968 349.883 102.648C349.259 104.28 348.947 105.744 348.947 107.04C348.947 108.672 349.739 110.328 351.323 112.008C352.955 113.64 355.331 115.656 358.451 118.056C360.803 119.784 362.555 121.224 363.707 122.376C364.859 123.48 365.459 124.488 365.507 125.4C365.555 127.416 364.499 129.408 362.339 131.376C360.179 133.296 357.467 134.88 354.203 136.128C350.987 137.376 347.987 138 345.203 138C343.043 138 340.811 137.472 338.507 136.416C336.203 135.312 334.283 134.04 332.747 132.6C331.211 131.112 330.419 129.816 330.371 128.712C330.275 126.6 330.971 124.896 332.459 123.6C333.947 122.256 335.939 121.584 338.435 121.584C339.683 121.584 340.955 121.752 342.251 122.088C342.827 125.256 343.331 127.536 343.763 128.928C346.595 128.208 349.667 126.96 352.979 125.184C342.275 117.072 336.923 110.736 336.923 106.176C336.923 103.968 337.739 101.328 339.371 98.256C341.003 95.136 343.163 92.472 345.851 90.264C348.539 88.008 351.371 86.88 354.347 86.88C356.555 86.88 358.691 87.624 360.755 89.112C362.819 90.6 364.499 92.424 365.795 94.584C367.091 96.744 367.739 98.76 367.739 100.632C367.739 102.456 366.995 103.92 365.507 105.024C364.067 106.08 362.267 106.608 360.107 106.608C358.427 106.608 356.747 106.248 355.067 105.528Z"/>
<path d="M402.991 87.6C403.903 88.128 404.575 88.872 405.007 89.832C405.487 90.744 405.727 91.752 405.727 92.856C405.727 93.816 405.535 94.776 405.151 95.736C404.767 96.696 404.263 97.488 403.639 98.112C397.447 98.208 392.287 98.448 388.159 98.832C387.343 101.76 386.575 105.024 385.855 108.624C390.655 108.24 394.711 107.664 398.023 106.896C398.983 107.472 399.703 108.24 400.183 109.2C400.711 110.112 400.975 111.12 400.975 112.224C400.975 113.232 400.759 114.192 400.327 115.104C399.943 115.968 399.391 116.664 398.671 117.192C397.759 117.288 396.871 117.36 396.007 117.408C395.143 117.456 394.303 117.504 393.487 117.552L384.199 118.2L382.903 124.68L382.183 128.136C385.111 127.848 387.751 127.464 390.103 126.984C392.503 126.456 395.023 125.736 397.663 124.824C399.007 125.448 400.039 126.336 400.759 127.488C401.527 128.592 401.911 129.816 401.911 131.16C401.911 133.08 401.167 134.784 399.679 136.272C396.703 136.848 393.367 137.28 389.671 137.568C385.975 137.856 382.543 138 379.375 138C378.511 138 377.383 137.568 375.991 136.704C374.599 135.84 373.351 134.832 372.247 133.68C371.191 132.528 370.663 131.544 370.663 130.728C370.663 130.008 371.215 127.224 372.319 122.376C373.135 118.824 373.927 115.128 374.695 111.288C375.223 108.648 375.487 107.328 375.487 107.328C376.255 103.584 376.759 100.872 376.999 99.192L373.975 99.408C373.063 98.928 372.319 98.232 371.743 97.32C371.215 96.36 370.951 95.328 370.951 94.224C370.951 92.304 371.695 90.6 373.183 89.112C379.759 89.016 385.471 88.872 390.319 88.68C395.215 88.488 399.439 88.128 402.991 87.6Z"/>
<path d="M419.172 138C418.068 138 416.748 137.592 415.212 136.776C413.724 135.96 412.404 135 411.252 133.896C410.148 132.792 409.596 131.88 409.596 131.16C409.596 129.912 410.772 123.552 413.124 112.08C413.412 110.736 413.868 108.456 414.492 105.24C415.164 101.976 415.62 99.624 415.86 98.184L413.196 98.616C411.708 97.224 410.964 95.472 410.964 93.36C410.964 91.872 411.372 90.336 412.188 88.752C416.076 87.744 420.012 87.24 423.996 87.24C428.22 87.24 432.132 87.792 435.732 88.896C439.38 90 442.332 91.704 444.588 94.008C446.844 96.264 447.972 99.096 447.972 102.504C447.972 105.528 446.964 108.408 444.948 111.144C442.98 113.832 440.1 116.064 436.308 117.84C432.516 119.616 428.052 120.696 422.916 121.08C422.58 123.384 422.316 125.472 422.124 127.344C421.692 130.992 421.284 133.68 420.9 135.408C420.516 137.136 419.94 138 419.172 138ZM423.996 112.152C428.172 111.336 431.388 110.088 433.644 108.408C435.948 106.68 437.1 104.76 437.1 102.648C437.1 101.208 436.38 100.008 434.94 99.048C433.548 98.04 431.652 97.536 429.252 97.536C428.388 97.536 427.452 97.608 426.444 97.752L425.292 104.52C424.62 108.312 424.188 110.856 423.996 112.152Z"/>
<path d="M458.27 138C456.926 138 455.51 137.376 454.022 136.128C452.582 134.88 451.358 133.392 450.35 131.664C449.39 129.888 448.91 128.352 448.91 127.056C448.91 126 449.63 124.824 451.07 123.528C452.558 122.184 454.862 120.408 457.982 118.2C461.294 115.8 463.958 113.76 465.974 112.08C468.038 110.4 469.958 108.48 471.734 106.32C473.558 104.16 474.782 101.904 475.406 99.552C472.766 99.792 470.246 100.464 467.846 101.568C465.494 102.672 463.118 104.16 460.718 106.032C458.846 105.648 457.358 104.856 456.254 103.656C455.198 102.456 454.67 101.136 454.67 99.696C454.67 97.968 455.558 96.36 457.334 94.872C459.158 93.336 461.51 92.136 464.39 91.272C467.318 90.36 470.342 89.904 473.462 89.904C475.19 89.904 476.942 90.48 478.718 91.632C480.542 92.784 482.03 94.176 483.182 95.808C484.382 97.44 484.982 98.904 484.982 100.2C484.982 104.808 482.51 109.584 477.566 114.528C472.67 119.472 466.622 124.08 459.422 128.352L459.998 129.288C462.158 128.856 465.182 128.16 469.07 127.2C475.214 125.712 478.91 124.968 480.158 124.968C481.55 124.968 482.606 125.472 483.326 126.48C484.046 127.488 484.406 128.76 484.406 130.296C484.406 131.88 484.07 133.272 483.398 134.472L481.31 134.832C475.982 135.792 471.422 136.56 467.63 137.136C463.886 137.712 460.766 138 458.27 138Z"/>
<path d="M501.828 104.16C500.388 105.6 499.188 106.728 498.228 107.544C497.268 108.312 496.5 108.696 495.924 108.696C495.204 108.696 494.316 108.264 493.26 107.4C492.252 106.488 491.364 105.432 490.596 104.232C489.828 103.032 489.444 101.976 489.444 101.064C489.444 100.152 490.572 98.808 492.828 97.032C495.132 95.256 497.652 93.624 500.388 92.136C503.124 90.648 505.044 89.904 506.148 89.904C507.252 89.904 508.548 90.312 510.036 91.128C511.524 91.944 512.796 92.952 513.852 94.152C514.908 95.304 515.436 96.36 515.436 97.32C515.436 98.424 514.836 101.112 513.636 105.384C512.292 110.28 511.404 114 510.972 116.544C510.588 118.608 510.132 122.184 509.604 127.272C509.22 131.064 508.86 133.8 508.524 135.48C508.188 137.16 507.708 138 507.084 138C505.884 138 504.516 137.64 502.98 136.92C501.444 136.2 500.124 135.336 499.02 134.328C497.916 133.32 497.364 132.432 497.364 131.664C497.364 130.656 497.7 128.352 498.372 124.752C499.092 121.152 499.98 117.36 501.036 113.376C502.14 109.344 503.316 106.032 504.564 103.44L503.412 102.648L501.828 104.16Z"/>
<path d="M525.269 144.552C524.213 144.552 522.989 144.24 521.597 143.616C520.205 142.992 519.005 142.224 517.997 141.312C516.989 140.4 516.485 139.536 516.485 138.72C516.485 138.048 516.821 136.608 517.493 134.4C518.165 132.192 518.933 129.72 519.797 126.984C522.245 119.304 523.829 114.144 524.549 111.504C525.125 109.44 526.157 105.36 527.645 99.264C528.941 93.696 529.997 89.664 530.813 87.168C531.677 84.672 532.589 83.424 533.549 83.424C534.509 83.424 535.637 83.832 536.933 84.648C538.229 85.464 539.357 86.424 540.317 87.528C541.277 88.584 541.757 89.496 541.757 90.264C541.757 91.128 541.493 92.52 540.965 94.44C540.437 96.36 539.573 99.24 538.373 103.08C536.837 107.928 535.541 112.224 534.485 115.968L531.533 126.984C529.949 133.176 528.701 137.64 527.789 140.376C526.925 143.16 526.085 144.552 525.269 144.552Z"/>
<path d="M551.397 132.384C549.333 132.192 547.701 131.472 546.501 130.224C545.301 128.928 544.701 127.368 544.701 125.544C544.701 124.488 544.917 123.432 545.349 122.376L566.661 113.304L547.869 103.728C547.101 102.624 546.717 101.472 546.717 100.272C546.717 98.688 547.365 97.296 548.661 96.096C549.957 94.896 551.613 94.2 553.629 94.008L575.301 110.28C575.541 110.76 575.661 111.408 575.661 112.224C575.661 113.616 575.325 114.936 574.653 116.184L551.397 132.384Z"/>
</mask>
<path d="M29.912 1.816V7.144H8.09601V24.064H25.808V29.392H8.09601V52H1.54401V1.816H29.912Z" stroke="white" stroke-width="2" mask="url(#path-1-outside-1_101:5)"/>
<path d="M64.2493 52L52.2973 31.48H44.3773V52H37.8253V1.816H54.0253C57.8173 1.816 61.0093 2.464 63.6013 3.76C66.2413 5.056 68.2093 6.808 69.5053 9.016C70.8013 11.224 71.4493 13.744 71.4493 16.576C71.4493 20.032 70.4413 23.08 68.4253 25.72C66.4573 28.36 63.4813 30.112 59.4973 30.976L72.0973 52H64.2493ZM44.3773 26.224H54.0253C57.5773 26.224 60.2413 25.36 62.0173 23.632C63.7933 21.856 64.6813 19.504 64.6813 16.576C64.6813 13.6 63.7933 11.296 62.0173 9.664C60.2893 8.032 57.6253 7.216 54.0253 7.216H44.3773V26.224Z" stroke="white" stroke-width="2" mask="url(#path-1-outside-1_101:5)"/>
<path d="M104.382 52.504C99.7259 52.504 95.4779 51.424 91.6379 49.264C87.7979 47.056 84.7499 44.008 82.4939 40.12C80.2859 36.184 79.1819 31.768 79.1819 26.872C79.1819 21.976 80.2859 17.584 82.4939 13.696C84.7499 9.76 87.7979 6.712 91.6379 4.552C95.4779 2.344 99.7259 1.24 104.382 1.24C109.086 1.24 113.358 2.344 117.198 4.552C121.038 6.712 124.062 9.736 126.27 13.624C128.478 17.512 129.582 21.928 129.582 26.872C129.582 31.816 128.478 36.232 126.27 40.12C124.062 44.008 121.038 47.056 117.198 49.264C113.358 51.424 109.086 52.504 104.382 52.504ZM104.382 46.816C107.886 46.816 111.03 46 113.814 44.368C116.646 42.736 118.854 40.408 120.438 37.384C122.07 34.36 122.886 30.856 122.886 26.872C122.886 22.84 122.07 19.336 120.438 16.36C118.854 13.336 116.67 11.008 113.886 9.376C111.102 7.744 107.934 6.928 104.382 6.928C100.83 6.928 97.6619 7.744 94.8779 9.376C92.0939 11.008 89.8859 13.336 88.2539 16.36C86.6699 19.336 85.8779 22.84 85.8779 26.872C85.8779 30.856 86.6699 34.36 88.2539 37.384C89.8859 40.408 92.0939 42.736 94.8779 44.368C97.7099 46 100.878 46.816 104.382 46.816Z" stroke="white" stroke-width="2" mask="url(#path-1-outside-1_101:5)"/>
<path d="M177.688 52H171.135L144.784 12.04V52H138.232V1.744H144.784L171.135 41.632V1.744H177.688V52Z" stroke="white" stroke-width="2" mask="url(#path-1-outside-1_101:5)"/>
<path d="M219.745 1.816V7.144H206.064V52H199.512V7.144H185.76V1.816H219.745Z" stroke="white" stroke-width="2" mask="url(#path-1-outside-1_101:5)"/>
<path d="M234.362 7.144V23.92H252.65V29.32H234.362V46.6H254.81V52H227.81V1.744H254.81V7.144H234.362Z" stroke="white" stroke-width="2" mask="url(#path-1-outside-1_101:5)"/>
<path d="M304.18 52H297.628L271.276 12.04V52H264.724V1.744H271.276L297.628 41.632V1.744H304.18V52Z" stroke="white" stroke-width="2" mask="url(#path-1-outside-1_101:5)"/>
<path d="M330.973 1.816C336.445 1.816 341.173 2.848 345.157 4.912C349.189 6.928 352.261 9.832 354.373 13.624C356.533 17.416 357.613 21.88 357.613 27.016C357.613 32.152 356.533 36.616 354.373 40.408C352.261 44.152 349.189 47.032 345.157 49.048C341.173 51.016 336.445 52 330.973 52H315.349V1.816H330.973ZM330.973 46.6C337.453 46.6 342.397 44.896 345.805 41.488C349.213 38.032 350.917 33.208 350.917 27.016C350.917 20.776 349.189 15.904 345.733 12.4C342.325 8.896 337.405 7.144 330.973 7.144H321.901V46.6H330.973Z" stroke="white" stroke-width="2" mask="url(#path-1-outside-1_101:5)"/>
<path d="M401.074 1.816C406.546 1.816 411.274 2.848 415.258 4.912C419.29 6.928 422.362 9.832 424.474 13.624C426.634 17.416 427.714 21.88 427.714 27.016C427.714 32.152 426.634 36.616 424.474 40.408C422.362 44.152 419.29 47.032 415.258 49.048C411.274 51.016 406.546 52 401.074 52H385.45V1.816H401.074ZM401.074 46.6C407.554 46.6 412.498 44.896 415.906 41.488C419.314 38.032 421.018 33.208 421.018 27.016C421.018 20.776 419.29 15.904 415.834 12.4C412.426 8.896 407.506 7.144 401.074 7.144H392.002V46.6H401.074Z" stroke="white" stroke-width="2" mask="url(#path-1-outside-1_101:5)"/>
<path d="M442.909 7.144V23.92H461.197V29.32H442.909V46.6H463.357V52H436.357V1.744H463.357V7.144H442.909Z" stroke="white" stroke-width="2" mask="url(#path-1-outside-1_101:5)"/>
<path d="M514.743 1.816L495.807 52H488.247L469.311 1.816H476.295L492.063 45.088L507.831 1.816H514.743Z" stroke="white" stroke-width="2" mask="url(#path-1-outside-1_101:5)"/>
<path d="M528.479 7.144V23.92H546.767V29.32H528.479V46.6H548.927V52H521.927V1.744H548.927V7.144H528.479Z" stroke="white" stroke-width="2" mask="url(#path-1-outside-1_101:5)"/>
<path d="M565.393 46.672H582.961V52H558.841V1.816H565.393V46.672Z" stroke="white" stroke-width="2" mask="url(#path-1-outside-1_101:5)"/>
<path d="M612.671 52.504C608.015 52.504 603.767 51.424 599.927 49.264C596.087 47.056 593.039 44.008 590.783 40.12C588.575 36.184 587.471 31.768 587.471 26.872C587.471 21.976 588.575 17.584 590.783 13.696C593.039 9.76 596.087 6.712 599.927 4.552C603.767 2.344 608.015 1.24 612.671 1.24C617.375 1.24 621.647 2.344 625.487 4.552C629.327 6.712 632.351 9.736 634.559 13.624C636.767 17.512 637.871 21.928 637.871 26.872C637.871 31.816 636.767 36.232 634.559 40.12C632.351 44.008 629.327 47.056 625.487 49.264C621.647 51.424 617.375 52.504 612.671 52.504ZM612.671 46.816C616.175 46.816 619.319 46 622.103 44.368C624.935 42.736 627.143 40.408 628.727 37.384C630.359 34.36 631.175 30.856 631.175 26.872C631.175 22.84 630.359 19.336 628.727 16.36C627.143 13.336 624.959 11.008 622.175 9.376C619.391 7.744 616.223 6.928 612.671 6.928C609.119 6.928 605.951 7.744 603.167 9.376C600.383 11.008 598.175 13.336 596.543 16.36C594.959 19.336 594.167 22.84 594.167 26.872C594.167 30.856 594.959 34.36 596.543 37.384C598.175 40.408 600.383 42.736 603.167 44.368C605.999 46 609.167 46.816 612.671 46.816Z" stroke="white" stroke-width="2" mask="url(#path-1-outside-1_101:5)"/>
<path d="M680.073 16.504C680.073 20.68 678.633 24.16 675.753 26.944C672.921 29.68 668.577 31.048 662.721 31.048H653.073V52H646.521V1.816H662.721C668.385 1.816 672.681 3.184 675.609 5.92C678.585 8.656 680.073 12.184 680.073 16.504ZM662.721 25.648C666.369 25.648 669.057 24.856 670.785 23.272C672.513 21.688 673.377 19.432 673.377 16.504C673.377 10.312 669.825 7.216 662.721 7.216H653.073V25.648H662.721Z" stroke="white" stroke-width="2" mask="url(#path-1-outside-1_101:5)"/>
<path d="M694.768 7.144V23.92H713.056V29.32H694.768V46.6H715.216V52H688.216V1.744H715.216V7.144H694.768Z" stroke="white" stroke-width="2" mask="url(#path-1-outside-1_101:5)"/>
<path d="M751.554 52L739.602 31.48H731.682V52H725.13V1.816H741.33C745.122 1.816 748.314 2.464 750.906 3.76C753.546 5.056 755.514 6.808 756.81 9.016C758.106 11.224 758.754 13.744 758.754 16.576C758.754 20.032 757.746 23.08 755.73 25.72C753.762 28.36 750.786 30.112 746.802 30.976L759.402 52H751.554ZM731.682 26.224H741.33C744.882 26.224 747.546 25.36 749.322 23.632C751.098 21.856 751.986 19.504 751.986 16.576C751.986 13.6 751.098 11.296 749.322 9.664C747.594 8.032 744.93 7.216 741.33 7.216H731.682V26.224Z" stroke="white" stroke-width="2" mask="url(#path-1-outside-1_101:5)"/>
<path d="M176.682 115.464C176.586 114.888 176.538 114.432 176.538 114.096C176.538 112.32 177.018 110.808 177.978 109.56L201.738 94.296C203.658 94.632 205.146 95.4 206.202 96.6C207.306 97.752 207.858 99.096 207.858 100.632C207.858 101.736 207.522 102.888 206.85 104.088L184.89 114.24L203.682 122.736C204.402 123.888 204.762 125.016 204.762 126.12C204.762 127.752 204.09 129.144 202.746 130.296C201.45 131.4 199.794 131.952 197.778 131.952L176.682 115.464Z" stroke="white" stroke-width="2" mask="url(#path-1-outside-1_101:5)"/>
<path d="M242.916 87.6C243.828 87.6 245.052 88.008 246.588 88.824C248.172 89.64 249.54 90.6 250.692 91.704C251.892 92.808 252.492 93.768 252.492 94.584C252.492 95.016 252.036 96.936 251.124 100.344C249.444 106.392 248.196 111.672 247.38 116.184C246.9 119.016 246.396 122.736 245.868 127.344C245.388 131.28 244.956 134.04 244.572 135.624C244.236 137.208 243.684 138 242.916 138C241.812 138 240.492 137.616 238.956 136.848C237.468 136.032 236.148 135.072 234.996 133.968C233.892 132.864 233.34 131.952 233.34 131.232C233.292 130.56 233.436 129.288 233.772 127.416C234.156 125.496 234.588 123.384 235.068 121.08L235.716 117.984C231.3 118.656 226.956 119.136 222.684 119.424C222.204 122.64 221.868 125.328 221.676 127.488C221.196 131.376 220.764 134.112 220.38 135.696C220.044 137.232 219.492 138 218.724 138C217.62 138 216.3 137.616 214.764 136.848C213.276 136.032 211.956 135.072 210.804 133.968C209.7 132.864 209.148 131.952 209.148 131.232C209.1 130.464 209.316 128.856 209.796 126.408C210.324 123.912 210.66 122.304 210.804 121.584C210.996 120.624 211.356 118.872 211.884 116.328C212.412 113.736 212.844 111.336 213.18 109.128L213.756 105.744C214.668 100.368 215.508 96 216.276 92.64C217.092 89.28 217.908 87.6 218.724 87.6C219.636 87.6 220.86 88.008 222.396 88.824C223.98 89.64 225.348 90.6 226.5 91.704C227.7 92.808 228.3 93.768 228.3 94.584C228.3 95.016 227.844 96.936 226.932 100.344C226.74 101.112 226.404 102.408 225.924 104.232C225.444 106.056 225.012 107.76 224.628 109.344C229.092 109.008 233.412 108.552 237.588 107.976C237.684 107.304 237.78 106.776 237.876 106.392C238.74 101.064 239.58 96.6 240.396 93C241.212 89.4 242.052 87.6 242.916 87.6Z" stroke="white" stroke-width="2" mask="url(#path-1-outside-1_101:5)"/>
<path d="M272.662 86.88C276.166 86.88 279.478 87.72 282.598 89.4C285.766 91.08 288.286 93.312 290.158 96.096C292.078 98.832 293.038 101.688 293.038 104.664C293.038 109.32 291.79 114.312 289.294 119.64C286.798 124.92 283.63 129.36 279.79 132.96C275.998 136.56 272.254 138.36 268.558 138.36C266.638 138.36 264.478 137.568 262.078 135.984C259.726 134.352 257.71 132.432 256.03 130.224C254.35 127.968 253.51 125.976 253.51 124.248C253.51 121.512 254.326 116.808 255.958 110.136C257.59 103.416 259.102 98.472 260.494 95.304C262.078 94.824 263.566 94.584 264.958 94.584C265.918 94.584 266.686 94.68 267.262 94.872C267.166 93.096 267.598 91.464 268.558 89.976C269.518 88.488 270.886 87.456 272.662 86.88ZM265.246 128.496C269.854 126.816 273.718 123.6 276.838 118.848C279.958 114.048 282.166 108.792 283.462 103.08C282.118 102.12 280.366 101.328 278.206 100.704C276.094 100.08 273.814 99.744 271.366 99.696C271.462 100.176 271.558 100.896 271.654 101.856C267.238 110.112 265.102 118.992 265.246 128.496Z" stroke="white" stroke-width="2" mask="url(#path-1-outside-1_101:5)"/>
<path d="M311.956 138C311.044 138 309.724 137.616 307.996 136.848C306.268 136.032 304.66 135.096 303.172 134.04C301.732 132.936 300.916 132 300.724 131.232C300.484 130.176 300.052 125.76 299.428 117.984C299.236 114.864 299.068 112.584 298.924 111.144C298.828 109.896 298.732 108.96 298.636 108.336C298.012 101.904 297.7 97.248 297.7 94.368C297.7 91.152 298.06 89.448 298.78 89.256C298.972 89.208 299.284 89.184 299.716 89.184C300.772 89.184 302.068 89.448 303.604 89.976C305.188 90.456 306.58 91.08 307.78 91.848C308.98 92.616 309.676 93.36 309.868 94.08C309.964 94.368 310.012 95.448 310.012 97.32C310.012 99.96 309.94 103.2 309.796 107.04C309.604 113.28 309.508 118.104 309.508 121.512V124.104C313.588 115.176 318.148 103.2 323.188 88.176C324.628 87.696 326.092 87.456 327.58 87.456C329.548 87.456 331.204 87.984 332.548 89.04C333.94 90.096 334.852 91.704 335.284 93.864C321.796 123.288 314.02 138 311.956 138Z" stroke="white" stroke-width="2" mask="url(#path-1-outside-1_101:5)"/>
<path d="M355.067 105.528C355.451 103.128 355.643 101.208 355.643 99.768C355.643 98.76 355.547 97.968 355.355 97.392C355.211 96.816 355.019 96.528 354.779 96.528C354.059 96.528 353.219 97.128 352.259 98.328C351.347 99.528 350.555 100.968 349.883 102.648C349.259 104.28 348.947 105.744 348.947 107.04C348.947 108.672 349.739 110.328 351.323 112.008C352.955 113.64 355.331 115.656 358.451 118.056C360.803 119.784 362.555 121.224 363.707 122.376C364.859 123.48 365.459 124.488 365.507 125.4C365.555 127.416 364.499 129.408 362.339 131.376C360.179 133.296 357.467 134.88 354.203 136.128C350.987 137.376 347.987 138 345.203 138C343.043 138 340.811 137.472 338.507 136.416C336.203 135.312 334.283 134.04 332.747 132.6C331.211 131.112 330.419 129.816 330.371 128.712C330.275 126.6 330.971 124.896 332.459 123.6C333.947 122.256 335.939 121.584 338.435 121.584C339.683 121.584 340.955 121.752 342.251 122.088C342.827 125.256 343.331 127.536 343.763 128.928C346.595 128.208 349.667 126.96 352.979 125.184C342.275 117.072 336.923 110.736 336.923 106.176C336.923 103.968 337.739 101.328 339.371 98.256C341.003 95.136 343.163 92.472 345.851 90.264C348.539 88.008 351.371 86.88 354.347 86.88C356.555 86.88 358.691 87.624 360.755 89.112C362.819 90.6 364.499 92.424 365.795 94.584C367.091 96.744 367.739 98.76 367.739 100.632C367.739 102.456 366.995 103.92 365.507 105.024C364.067 106.08 362.267 106.608 360.107 106.608C358.427 106.608 356.747 106.248 355.067 105.528Z" stroke="white" stroke-width="2" mask="url(#path-1-outside-1_101:5)"/>
<path d="M402.991 87.6C403.903 88.128 404.575 88.872 405.007 89.832C405.487 90.744 405.727 91.752 405.727 92.856C405.727 93.816 405.535 94.776 405.151 95.736C404.767 96.696 404.263 97.488 403.639 98.112C397.447 98.208 392.287 98.448 388.159 98.832C387.343 101.76 386.575 105.024 385.855 108.624C390.655 108.24 394.711 107.664 398.023 106.896C398.983 107.472 399.703 108.24 400.183 109.2C400.711 110.112 400.975 111.12 400.975 112.224C400.975 113.232 400.759 114.192 400.327 115.104C399.943 115.968 399.391 116.664 398.671 117.192C397.759 117.288 396.871 117.36 396.007 117.408C395.143 117.456 394.303 117.504 393.487 117.552L384.199 118.2L382.903 124.68L382.183 128.136C385.111 127.848 387.751 127.464 390.103 126.984C392.503 126.456 395.023 125.736 397.663 124.824C399.007 125.448 400.039 126.336 400.759 127.488C401.527 128.592 401.911 129.816 401.911 131.16C401.911 133.08 401.167 134.784 399.679 136.272C396.703 136.848 393.367 137.28 389.671 137.568C385.975 137.856 382.543 138 379.375 138C378.511 138 377.383 137.568 375.991 136.704C374.599 135.84 373.351 134.832 372.247 133.68C371.191 132.528 370.663 131.544 370.663 130.728C370.663 130.008 371.215 127.224 372.319 122.376C373.135 118.824 373.927 115.128 374.695 111.288C375.223 108.648 375.487 107.328 375.487 107.328C376.255 103.584 376.759 100.872 376.999 99.192L373.975 99.408C373.063 98.928 372.319 98.232 371.743 97.32C371.215 96.36 370.951 95.328 370.951 94.224C370.951 92.304 371.695 90.6 373.183 89.112C379.759 89.016 385.471 88.872 390.319 88.68C395.215 88.488 399.439 88.128 402.991 87.6Z" stroke="white" stroke-width="2" mask="url(#path-1-outside-1_101:5)"/>
<path d="M419.172 138C418.068 138 416.748 137.592 415.212 136.776C413.724 135.96 412.404 135 411.252 133.896C410.148 132.792 409.596 131.88 409.596 131.16C409.596 129.912 410.772 123.552 413.124 112.08C413.412 110.736 413.868 108.456 414.492 105.24C415.164 101.976 415.62 99.624 415.86 98.184L413.196 98.616C411.708 97.224 410.964 95.472 410.964 93.36C410.964 91.872 411.372 90.336 412.188 88.752C416.076 87.744 420.012 87.24 423.996 87.24C428.22 87.24 432.132 87.792 435.732 88.896C439.38 90 442.332 91.704 444.588 94.008C446.844 96.264 447.972 99.096 447.972 102.504C447.972 105.528 446.964 108.408 444.948 111.144C442.98 113.832 440.1 116.064 436.308 117.84C432.516 119.616 428.052 120.696 422.916 121.08C422.58 123.384 422.316 125.472 422.124 127.344C421.692 130.992 421.284 133.68 420.9 135.408C420.516 137.136 419.94 138 419.172 138ZM423.996 112.152C428.172 111.336 431.388 110.088 433.644 108.408C435.948 106.68 437.1 104.76 437.1 102.648C437.1 101.208 436.38 100.008 434.94 99.048C433.548 98.04 431.652 97.536 429.252 97.536C428.388 97.536 427.452 97.608 426.444 97.752L425.292 104.52C424.62 108.312 424.188 110.856 423.996 112.152Z" stroke="white" stroke-width="2" mask="url(#path-1-outside-1_101:5)"/>
<path d="M458.27 138C456.926 138 455.51 137.376 454.022 136.128C452.582 134.88 451.358 133.392 450.35 131.664C449.39 129.888 448.91 128.352 448.91 127.056C448.91 126 449.63 124.824 451.07 123.528C452.558 122.184 454.862 120.408 457.982 118.2C461.294 115.8 463.958 113.76 465.974 112.08C468.038 110.4 469.958 108.48 471.734 106.32C473.558 104.16 474.782 101.904 475.406 99.552C472.766 99.792 470.246 100.464 467.846 101.568C465.494 102.672 463.118 104.16 460.718 106.032C458.846 105.648 457.358 104.856 456.254 103.656C455.198 102.456 454.67 101.136 454.67 99.696C454.67 97.968 455.558 96.36 457.334 94.872C459.158 93.336 461.51 92.136 464.39 91.272C467.318 90.36 470.342 89.904 473.462 89.904C475.19 89.904 476.942 90.48 478.718 91.632C480.542 92.784 482.03 94.176 483.182 95.808C484.382 97.44 484.982 98.904 484.982 100.2C484.982 104.808 482.51 109.584 477.566 114.528C472.67 119.472 466.622 124.08 459.422 128.352L459.998 129.288C462.158 128.856 465.182 128.16 469.07 127.2C475.214 125.712 478.91 124.968 480.158 124.968C481.55 124.968 482.606 125.472 483.326 126.48C484.046 127.488 484.406 128.76 484.406 130.296C484.406 131.88 484.07 133.272 483.398 134.472L481.31 134.832C475.982 135.792 471.422 136.56 467.63 137.136C463.886 137.712 460.766 138 458.27 138Z" stroke="white" stroke-width="2" mask="url(#path-1-outside-1_101:5)"/>
<path d="M501.828 104.16C500.388 105.6 499.188 106.728 498.228 107.544C497.268 108.312 496.5 108.696 495.924 108.696C495.204 108.696 494.316 108.264 493.26 107.4C492.252 106.488 491.364 105.432 490.596 104.232C489.828 103.032 489.444 101.976 489.444 101.064C489.444 100.152 490.572 98.808 492.828 97.032C495.132 95.256 497.652 93.624 500.388 92.136C503.124 90.648 505.044 89.904 506.148 89.904C507.252 89.904 508.548 90.312 510.036 91.128C511.524 91.944 512.796 92.952 513.852 94.152C514.908 95.304 515.436 96.36 515.436 97.32C515.436 98.424 514.836 101.112 513.636 105.384C512.292 110.28 511.404 114 510.972 116.544C510.588 118.608 510.132 122.184 509.604 127.272C509.22 131.064 508.86 133.8 508.524 135.48C508.188 137.16 507.708 138 507.084 138C505.884 138 504.516 137.64 502.98 136.92C501.444 136.2 500.124 135.336 499.02 134.328C497.916 133.32 497.364 132.432 497.364 131.664C497.364 130.656 497.7 128.352 498.372 124.752C499.092 121.152 499.98 117.36 501.036 113.376C502.14 109.344 503.316 106.032 504.564 103.44L503.412 102.648L501.828 104.16Z" stroke="white" stroke-width="2" mask="url(#path-1-outside-1_101:5)"/>
<path d="M525.269 144.552C524.213 144.552 522.989 144.24 521.597 143.616C520.205 142.992 519.005 142.224 517.997 141.312C516.989 140.4 516.485 139.536 516.485 138.72C516.485 138.048 516.821 136.608 517.493 134.4C518.165 132.192 518.933 129.72 519.797 126.984C522.245 119.304 523.829 114.144 524.549 111.504C525.125 109.44 526.157 105.36 527.645 99.264C528.941 93.696 529.997 89.664 530.813 87.168C531.677 84.672 532.589 83.424 533.549 83.424C534.509 83.424 535.637 83.832 536.933 84.648C538.229 85.464 539.357 86.424 540.317 87.528C541.277 88.584 541.757 89.496 541.757 90.264C541.757 91.128 541.493 92.52 540.965 94.44C540.437 96.36 539.573 99.24 538.373 103.08C536.837 107.928 535.541 112.224 534.485 115.968L531.533 126.984C529.949 133.176 528.701 137.64 527.789 140.376C526.925 143.16 526.085 144.552 525.269 144.552Z" stroke="white" stroke-width="2" mask="url(#path-1-outside-1_101:5)"/>
<path d="M551.397 132.384C549.333 132.192 547.701 131.472 546.501 130.224C545.301 128.928 544.701 127.368 544.701 125.544C544.701 124.488 544.917 123.432 545.349 122.376L566.661 113.304L547.869 103.728C547.101 102.624 546.717 101.472 546.717 100.272C546.717 98.688 547.365 97.296 548.661 96.096C549.957 94.896 551.613 94.2 553.629 94.008L575.301 110.28C575.541 110.76 575.661 111.408 575.661 112.224C575.661 113.616 575.325 114.936 574.653 116.184L551.397 132.384Z" stroke="white" stroke-width="2" mask="url(#path-1-outside-1_101:5)"/>
</svg>
